<?xml version="1.0" encoding="UTF-8"?>
<svg width="30px" height="30px" viewBox="0 0 30 30" version="1.1" xmlns="http://www.w3.org/2000/svg" xmlns:xlink="http://www.w3.org/1999/xlink">
    <title></title>
    <g id="btn_Rotate_normal" stroke="none" stroke-width="1" fill="none" fill-rule="evenodd">
        <g id="noun_Rotate_66374" transform="translate(15.000000, 15.000000) scale(-1, 1) translate(-15.000000, -15.000000) translate(1.000000, 1.000000)">
            <circle id="椭圆形" fill="#0ED04B" cx="14" cy="14" r="14"></circle>
            <path d="M14,5 C16.9886072,5 19.7480514,6.41321161 21.4169124,8.83662419 L21.5856276,9.09090909 L22.1039036,6.5926747 L22.8207488,6.73619604 L22.0013919,10.5450843 L18.2591926,9.49609639 L18.4776905,8.78473739 L20.9851716,9.49609639 C19.4703524,7.0246747 16.9214217,5.81818182 14,5.81818182 C9.39612048,5.81818182 5.81818182,9.39612048 5.81818182,14 C5.81818182,18.6038795 9.39612048,22.1858821 14,22.1858821 C18.1744442,22.1858821 21.5320676,19.2409497 22.1221245,15.2595554 L22.1564742,15.0000658 L22.1564742,15.0000658 L22.9447177,15.0008395 C22.4453369,19.4941877 18.6243388,23 14,23 C9.03742169,23 5,18.9625783 5,14 C5,9.03742169 9.03742169,5 14,5 Z" id="路径" stroke="#FFFFFF" stroke-width="0.9604" fill="#FFFFFF"></path>
        </g>
    </g>
</svg>