<?xml version="1.0" encoding="UTF-8"?>
<svg width="20px" height="20px" viewBox="0 0 20 20" version="1.1" xmlns="http://www.w3.org/2000/svg" xmlns:xlink="http://www.w3.org/1999/xlink">
    <title></title>
    <g id="icn_ifm" stroke="none" stroke-width="1" fill="none" fill-rule="evenodd">
        <g id="Group-9" transform="translate(2.000000, 2.000000)">
            <circle id="Oval" stroke="#CCCCCC" fill="#FFFFFF" cx="8" cy="8" r="8"></circle>
            <path d="M7.05593868,3.97234098 C7.05593868,3.69020716 7.15030872,3.45283851 7.33905163,3.26022792 C7.52779454,3.06761733 7.76039675,2.97131348 8.03686523,2.97131348 C8.31865042,2.97131348 8.55656925,3.06626094 8.75062886,3.2561587 C8.94468847,3.44605647 9.04171682,3.68478151 9.04171682,3.97234098 C9.04171682,4.2544748 8.94468847,4.48913067 8.75062886,4.67631561 C8.55656925,4.86350055 8.31865042,4.95709162 8.03686523,4.95709162 C7.75508005,4.95709162 7.52114868,4.86350055 7.33506413,4.67631561 C7.14897957,4.48913067 7.05593868,4.2544748 7.05593868,3.97234098 Z M7.06237793,12.8818589 C6.94376696,12.7578462 6.92724335,12.2957981 7.01280712,11.4957144 C7.26001106,9.62864356 7.39327457,8.51207844 7.41259766,8.14601904 C7.44525491,7.52735513 5.85159302,8.69805151 5.58706665,8.2318955 C5.32254028,7.7657395 6.63048321,7.10975666 7.21887207,6.84188085 C7.96936035,6.50020605 9.20638629,6.6784079 9.16980517,7.08532715 C9.05189272,8.396956 8.58631632,10.6004691 8.56585693,11.2909165 C8.54749574,11.9105556 10.2260742,10.7538682 10.630188,11.2516099 C11.0343018,11.7493516 8.95607351,12.8909351 8.6192627,13.0578232 C8.28896073,13.2214863 7.35393581,13.1866947 7.06237793,12.8818589 Z" id="i" fill="#969C99"></path>
        </g>
    </g>
</svg>