<?xml version="1.0" encoding="UTF-8"?>
<svg width="28px" height="28px" viewBox="0 0 28 28" version="1.1" xmlns="http://www.w3.org/2000/svg" xmlns:xlink="http://www.w3.org/1999/xlink">
    <title></title>
    <g id="btn/new-exam" stroke="none" stroke-width="1"  fill-rule="evenodd">
        <g id="Group" transform="translate(4.000000, 3.000000)">
            <path d="M19,1 L1,1 L1,21 L19,21 L19,1 Z M20,0 L20,22 L0,22 L0,0 L20,0 Z" id="Rectangle" fill-rule="nonzero"></path>
            <polygon id="Path"  fill-rule="nonzero" points="3 15 16 15 16 14 3 14"></polygon>
            <polygon id="Path-Copy" fill-rule="nonzero" points="3 18 13 18 13 17 3 17"></polygon>
            <path d="M9.894608,4.45 C9.56208185,4.45 9.26204075,4.57281175 9.02632216,4.81066212 C8.83838394,5.0003 8.68719276,5.27214934 8.61922659,5.63564152 L7.87495586,9.16522234 C7.8224762,9.5736134 7.74038526,9.90920849 8.90812713,10.55 C9.24065328,10.55 9.54069438,10.4271882 9.77641297,10.1893379 C9.96435118,9.9997 10.1155424,9.72785066 10.1835085,9.36435848 L10.925331,5.84638819 C10.9948001,5.44538383 11.096234,5.10760308 9.894608,4.45 Z" id="路径" stroke="#0ED04B" stroke-width="1.1" fill-rule="nonzero"></path>
            <path d="M14.894608,4.45 C14.5620818,4.45 14.2620407,4.57281175 14.0263222,4.81066212 C13.8383839,5.0003 13.6871928,5.27214934 13.6192266,5.63564152 L12.8749559,9.16522234 C12.8224762,9.5736134 12.7403853,9.90920849 13.9081271,10.55 C14.2406533,10.55 14.5406944,10.4271882 14.776413,10.1893379 C14.9643512,9.9997 15.1155424,9.72785066 15.1835085,9.36435848 L15.925331,5.84638819 C15.9948001,5.44538383 16.096234,5.10760308 14.894608,4.45 Z" id="路径备份" stroke="#0ED04B" stroke-width="1.1" fill-rule="nonzero"></path>
            <polygon id="矩形"  points="5.84010313 4 7 4 5.15989687 11 4 11"></polygon>
        </g>
    </g>
</svg>