<?xml version="1.0" encoding="UTF-8"?>
<svg width="28px" height="28px" viewBox="0 0 28 28" version="1.1" xmlns="http://www.w3.org/2000/svg" xmlns:xlink="http://www.w3.org/1999/xlink">
    <!-- Generator: Sketch 63.1 (92452) - https://sketch.com -->
    <title>传输</title>
    <desc>Created with Sketch.</desc>
    <g id="传输" stroke="none" stroke-width="1" fill="none" fill-rule="evenodd">
        <g id="编组" transform="translate(4.000000, 5.000000)" fill="#FFFFFF" fill-rule="nonzero">
            <path d="M5.22846972,15.9875365 C3.07462356,15.9875365 1,14.1538462 1,12 C1,9.84615385 2.84615385,8 5,8 C5.02726388,8 5.05452775,8 5.05452775,8 L5.68159688,8 C5.70886076,8 5.92697176,8.02726388 6.14508277,7.781889 C6.36319377,7.53651412 6.28140214,7.31840312 6.28140214,7.04576436 C6.28140214,3.80136319 9.15446777,1.01104736 12.3716051,1.01104736 C13.8983821,1.01104736 15.452423,1.66684985 16.4884502,2.62108549 C16.5975057,2.73014099 16.6116054,2.7412863 16.7479248,2.8503418 C16.9251099,2.99230957 17.0530396,3.13909912 17.2791026,3.13909912 C17.5051657,3.13909912 17.6870117,2.99230957 17.7698524,2.73729309 C17.8526931,2.4822766 17.6607969,2.32833496 17.4972136,2.1647517 C17.3881581,2.0556962 17.415422,2.08296008 17.2791026,1.97390458 C15.9977005,0.747030185 14.2800763,1.77635684e-15 12.3716051,1.77635684e-15 C8.52739864,1.77635684e-15 5.39205297,3.03719572 5.20120584,6.82687439 C2.33849893,6.82687439 0,9.13729309 0,12 C0,14.8627069 2.33849893,17.0114136 5.20120584,17.0114136 L6.50987186,17.0114136 C6.86430224,17.0114136 7.01092529,16.8464958 7.01092529,16.4920654 C7.03818917,16.2194267 6.86430224,15.9875365 6.50987186,15.9875365 L5.22846972,15.9875365 Z" id="形状"></path>
        </g>
        <path d="M24.7954916,22 C24.739337,22.5053912 23.8516462,22.5053912 23.7954916,22 L23.7954916,13 L20.7967136,16.0045563 C20.1565533,16.2559436 19.8666851,15.5520552 20.0582414,15.3104248 L23.143373,12.278166 C23.3225381,12.0891256 23.5421138,12 23.7954916,12 C24.3231237,12 24.7954916,12.4432858 24.7954916,13 L24.7954916,22 Z" id="Path-12" fill="#FFFFFF" fill-rule="nonzero" transform="translate(22.397746, 17.189522) scale(-1, -1) translate(-22.397746, -17.189522) "></path>
        <path d="M16.9981079,22 C16.9419533,22.5053912 16.0542625,22.5053912 15.9981079,22 L15.9981079,13 L12.9993299,16.0045563 C12.3591696,16.2559436 12.0693014,15.5520552 12.2608577,15.3104248 L15.3459893,12.278166 C15.5251544,12.0891256 15.7447301,12 15.9981079,12 C16.5257399,12 16.9981079,12.4432858 16.9981079,13 L16.9981079,22 Z" id="Path-12备份" fill="#FFFFFF" fill-rule="nonzero"></path>
    </g>
</svg>